<svg id="Layer_1" data-name="Layer 1" xmlns="http://www.w3.org/2000/svg" viewBox="0 0 1009 587.82"><defs><style>.cls-1{fill:#4d4d4d;}.cls-2{fill:#d13232;}</style></defs><path class="cls-1" d="M337.82,279.14a15.52,15.52,0,0,1-15.51-15.51v-35.4a15.52,15.52,0,0,1,15.51-15.5h8.95V179.61A145.55,145.55,0,0,0,201.22,34.06h-2.94A145.55,145.55,0,0,0,52.73,179.61v33.12h5.68a15.52,15.52,0,0,1,15.51,15.5v35.4a15.52,15.52,0,0,1-15.51,15.51H52.73v28.48h294V279.14Zm-199-104.75A14.29,14.29,0,1,1,153.1,160.1,14.29,14.29,0,0,1,138.81,174.39Zm117.8,0A14.29,14.29,0,1,1,270.9,160.1,14.29,14.29,0,0,1,256.61,174.39Z" transform="translate(-9 -34.06)"/><path class="cls-1" d="M62.8,446.35h273c19.18,0,20.26-15.55,20.26-34.73H42.53C42.53,430.8,43.62,446.35,62.8,446.35Z" transform="translate(-9 -34.06)"/><path class="cls-1" d="M335.8,334.73H62.8c-19.18,0-20.27,15.55-20.27,34.73v30.87H356.06V369.46C356.06,350.28,355,334.73,335.8,334.73Z" transform="translate(-9 -34.06)"/><rect class="cls-1" y="189.95" width="53.63" height="43.83" rx="4.22"/><path class="cls-1" d="M968.59,279.74a15.52,15.52,0,0,1-15.51-15.5V228.83a15.52,15.52,0,0,1,15.51-15.5h13.3V179.61A145.55,145.55,0,0,0,836.34,34.06H833.4A145.56,145.56,0,0,0,687.85,179.61v33.72h11.22a15.52,15.52,0,0,1,15.51,15.5v35.41a15.52,15.52,0,0,1-15.51,15.5H687.85v27.88h294V279.74ZM776,174.39a14.29,14.29,0,1,1,14.3-14.29A14.29,14.29,0,0,1,776,174.39Zm117.8,0a14.29,14.29,0,1,1,14.3-14.29A14.29,14.29,0,0,1,893.77,174.39Z" transform="translate(-9 -34.06)"/><path class="cls-1" d="M697.92,446.35h273c19.18,0,20.27-15.55,20.27-34.73H677.66C677.66,430.8,678.74,446.35,697.92,446.35Z" transform="translate(-9 -34.06)"/><path class="cls-1" d="M970.92,334.73h-273c-19.18,0-20.26,15.55-20.26,34.73v30.87H991.19V369.46C991.19,350.28,990.1,334.73,970.92,334.73Z" transform="translate(-9 -34.06)"/><path class="cls-2" d="M653.88,279.74a15.52,15.52,0,0,1-15.51-15.5V228.83a15.52,15.52,0,0,1,15.51-15.5h10.77V179.61A145.55,145.55,0,0,0,519.1,34.06h-2.94A145.56,145.56,0,0,0,370.61,179.61v33.12H383a15.52,15.52,0,0,1,15.51,15.5v35.4A15.52,15.52,0,0,1,383,279.14h-12.4v28.48h294V279.74ZM458.73,174.39A14.29,14.29,0,1,1,473,160.1,14.29,14.29,0,0,1,458.73,174.39Zm117.8,0a14.29,14.29,0,1,1,14.29-14.29A14.29,14.29,0,0,1,576.53,174.39Z" transform="translate(-9 -34.06)"/><path class="cls-1" d="M380.68,446.35h273c19.18,0,20.26-15.55,20.26-34.73H360.41C360.41,430.8,361.5,446.35,380.68,446.35Z" transform="translate(-9 -34.06)"/><path class="cls-1" d="M653.68,334.73h-273c-19.18,0-20.27,15.55-20.27,34.73v30.87H673.94V369.46C673.94,350.28,672.86,334.73,653.68,334.73Z" transform="translate(-9 -34.06)"/><rect class="cls-1" x="955.37" y="190.56" width="53.63" height="43.83" rx="4.22"/><rect class="cls-1" x="640.67" y="190.56" width="53.63" height="43.83" rx="4.22"/><rect class="cls-1" x="324.6" y="189.95" width="53.63" height="43.83" rx="4.22"/><rect class="cls-1" x="172.8" y="437.21" width="34.99" height="99.73"/><rect class="cls-1" x="490.68" y="437.21" width="34.99" height="99.73"/><rect class="cls-1" x="807.92" y="437.21" width="34.99" height="99.73"/><rect class="cls-1" x="18.42" y="560.22" width="976.28" height="27.6"/></svg>