<svg id="Layer_1" data-name="Layer 1" xmlns="http://www.w3.org/2000/svg" viewBox="0 0 651.41 722"><defs><style>.cls-1{fill:#4d4d4d;}.cls-2{fill:#d13232;}</style></defs><polygon class="cls-1" points="349.66 24.57 301.75 24.57 284.89 70.1 366.52 70.1 349.66 24.57"/><polygon class="cls-1" points="404.64 671.24 246.77 671.24 259.94 706.81 391.48 706.81 404.64 671.24"/><polygon class="cls-2" points="62.03 331.58 48.85 132.78 81.58 132.78 94.99 331.58 249.05 331.58 263.22 117.75 35.57 117.75 49.74 331.58 62.03 331.58"/><polygon class="cls-2" points="100.89 419.15 114.3 617.95 81.01 617.95 67.83 419.15 55.55 419.15 69.72 632.98 229.07 632.98 243.25 419.15 100.89 419.15"/><polygon class="cls-1" points="253.26 722 45.3 722 69.72 656.05 228.84 656.05 253.26 722"/><polygon class="cls-1" points="0 0 298.56 0 263.49 94.68 35.06 94.68 0 0"/><rect class="cls-1" x="28.34" y="343.11" width="241.88" height="64.5"/><polygon class="cls-2" points="414.89 331.58 401.71 132.78 434.43 132.78 447.84 331.58 601.91 331.58 616.08 117.75 388.43 117.75 402.6 331.58 414.89 331.58"/><polygon class="cls-2" points="453.75 419.15 467.16 617.95 433.87 617.95 420.69 419.15 408.4 419.15 422.58 632.98 581.93 632.98 596.1 419.15 453.75 419.15"/><polygon class="cls-1" points="606.12 722 398.15 722 422.58 656.05 581.69 656.05 606.12 722"/><polygon class="cls-1" points="352.86 0 651.41 0 616.35 94.68 387.92 94.68 352.86 0"/><rect class="cls-1" x="381.2" y="343.11" width="241.88" height="64.5"/><rect class="cls-1" x="289.19" y="329.36" width="73.04" height="92.01"/></svg>