<svg id="Layer_1" data-name="Layer 1" xmlns="http://www.w3.org/2000/svg" viewBox="0 0 806.27 738"><defs><style>.cls-1{fill:#4d4d4d;}.cls-2{fill:#d13232;}</style></defs><path class="cls-1" d="M515.18,399.44A45.92,45.92,0,0,1,493.36,413c-34,9.08-63.5-26.61-63.5-26.61S455,390,484.94,381.45a139.18,139.18,0,0,0,20.12-6.8,544,544,0,0,1-30.39-115.93c-32.49,12.06-70.7,24.91-111.81,35.89-116.16,31-221.28,38.22-221.28,38.22l17.69,66.22a523.63,523.63,0,0,0,324.25,356l2.57,1,1.75-2.1a523,523,0,0,0,109-224.14A541.73,541.73,0,0,1,515.18,399.44ZM250.75,434.21s25.17,3.63,55.07-4.92c30.19-7.5,50.2-23.2,50.2-23.2s-7.79,45.65-41.78,54.73S250.75,434.21,250.75,434.21ZM332.67,552c-41.6,11.11-16.28-60.92-16.28-60.92S374.26,540.89,332.67,552ZM443.4,596.17c-56.58,14.49-93.83,45.23-93.83,45.23s22.9-54.78,86.73-71.82,111,19,111,19S499.68,580.52,443.4,596.17Z" transform="translate(-141.58 -18)"/><path class="cls-2" d="M724.24,78.19C606,56.5,507.9,18,507.9,18L495.53,85.42A523.65,523.65,0,0,0,636.19,546l1.91,1.95,2.49-1.15A523.64,523.64,0,0,0,935.49,166.1l12.36-67.42S842.5,99.87,724.24,78.19Zm-107.5,88c34.6,6.34,46,51.23,46,51.23s-21.2-14.06-51.88-19.14c-30.49-6.14-55.29-.51-55.29-.51S582.15,159.83,616.74,166.18Zm41,274.64C582.59,427,557.83,329.54,557.83,329.54s42.91,47.6,109.56,58.62c66.23,13.34,123.24-15.93,123.24-15.93S732.89,454.6,657.74,440.82ZM793.21,231.71c-30.49-6.14-55.29-.52-55.29-.52s26.58-37.92,61.17-31.57,46,51.23,46,51.23S823.89,236.79,793.21,231.71Z" transform="translate(-141.58 -18)"/></svg>