<?xml version="1.0" encoding="utf-8"?>
<!-- Generator: Adobe Illustrator 24.1.2, SVG Export Plug-In . SVG Version: 6.00 Build 0)  -->
<svg version="1.1" id="Layer_1" xmlns="http://www.w3.org/2000/svg" xmlns:xlink="http://www.w3.org/1999/xlink" x="0px" y="0px"
	 viewBox="0 0 2609.9 678.2" style="enable-background:new 0 0 2609.9 678.2;" xml:space="preserve">
<style type="text/css">
	.st0{fill:#C33F38;}
</style>
<g id="Layer_x0020_1">
	<g id="_804538528">
		<path class="st0" d="M2571,552.2h-359.1c-2,6.1-4.2,11.9-6.9,17.8h379.5L2571,552.2z M25.4,570h379.5c-2.6-5.9-4.8-11.7-6.9-17.8
			H38.9L25.4,570z M2180.9,552.2h-577.1l13.3,17.8h556.5C2176.7,564.3,2179.1,558.2,2180.9,552.2z M436.2,570h556.5l13.3-17.8H428.9
			C430.8,558.2,433.2,564.3,436.2,570z M2120.6,412.4c127.3,66.9,72.8,245.6-80.3,200.6c-6.8-27.2-40.6-14.3-26.2,4.8
			c14.2,17.5,71.6,22.3,105.9,14.5c154.1-32.4,141.8-340.4-204.2-290.9l-5.9,1c4.5,13.4,6.5,29,6.5,42
			C1991.6,372.6,2075.4,388.4,2120.6,412.4z M693.5,384.3c0-12.9,2-28.6,6.5-42l-5.9-1c-346-49.4-358.2,258.5-204.2,290.9
			c34.3,7.8,91.7,3,105.9-14.5c14.3-19.1-19.4-32-26.2-4.8c-153.1,45-207.6-133.6-80.3-200.6C534.4,388.4,618.3,372.6,693.5,384.3z
			 M1304.9,653c44.7,1.1,97.6-10.4,158.1-40.7c142-72.2,280.5-188.3,425.3-222.5c0.7-7.7-0.5-28.8-6.3-42.2
			c-179.6,38.2-378.8,237.2-533.7,266.7c-14.9,2.8-29.5,4.8-43.5,5.7c-14.1-0.9-28.6-2.9-43.5-5.7
			c-154.9-29.5-354-228.5-533.7-266.7c-5.7,13.4-7,34.5-6.3,42.2c144.8,34.2,283.3,150.3,425.3,222.5
			C1207.4,642.6,1260.2,654.1,1304.9,653z M1304.9,294.3c22.3-0.9,48.4,6.1,65.7,13.7c20,8.7,38,20.5,51.5,29.3
			c-42.6,42.6-85.8,53.3-117.2,47.2c-31.3,6.1-74.5-4.6-117.2-47.2c13.5-8.8,31.5-20.6,51.5-29.3
			C1256.5,300.5,1282.7,293.4,1304.9,294.3z M1304.9,55.3c88.6,15.5,167.4,80.6,153.3,200.7c-4.9,40.1-15.7,56.1-23.2,66.6h-0.2
			l-1.2,1.6c-54.2-38-97.2-50.4-128.7-48.2c-31.4-2.3-74.4,10.2-128.7,48.2l-1.2-1.6h-0.2c-7.5-10.5-18.3-26.5-23.2-66.6
			C1137.5,135.9,1216.3,70.8,1304.9,55.3z M1304.9,402.1c7.2,0.9,14.9,1.2,23.3,0.6c42.2-1.9,78.9-25.7,108.6-55.3
			c21.1,14.6,37.4,26.4,57.3,40.6c-70.9,50.4-135,77-189.2,85.9c-54.1-9-118.3-35.5-189.2-85.9c19.9-14.2,36.2-26,57.3-40.6
			c29.6,29.6,66.3,53.4,108.6,55.3C1290,403.3,1297.8,403,1304.9,402.1z M1304.9,506.2c63.3-4.3,139.3-31.5,224.7-93.1
			c39,27,63.9,42.6,88,57.1l16.7-10.3c-6.6-4-37.5-21.3-89.6-57.7c457-330.9,424.9,199,141.4,83.9l-18.2,11.1
			c70.9,35.5,167.7,30.7,221.7-40.8c40-52,32.2-162.5-80.7-193.5c-105.9-29.2-212.8,52.9-300,114.2c-33.4-23.8-44.3-31.7-60.1-42.8
			c86.7-100.1,43.5-258.4-100.7-301.6c-14-4-28.5-6.5-43.3-7.7c-14.8,1.2-29.3,3.8-43.3,7.7c-144.1,43.2-187.4,201.6-100.7,301.6
			c-15.9,11.1-26.7,18.9-60.1,42.8c-87.3-61.3-194.2-143.4-300-114.2c-112.9,31-120.7,141.5-80.7,193.5
			c54,71.4,150.8,76.2,221.7,40.8l-18.2-11.1c-283.5,115-315.6-414.9,141.4-83.9c-52.1,36.4-83,53.7-89.6,57.7l16.7,10.3
			c24.1-14.5,49-30.1,88-57.1C1165.6,474.7,1241.6,501.9,1304.9,506.2z"/>
	</g>
</g>
</svg>
