<svg id="Layer_1" data-name="Layer 1" xmlns="http://www.w3.org/2000/svg" viewBox="0 0 754.78 744"><defs><style>.cls-1{fill:#4d4d4d;}.cls-2{fill:#d13232;}</style></defs><path class="cls-1" d="M719.61,420.37Z" transform="translate(-148.14 -12)"/><path class="cls-1" d="M719.61,420.37h0C684,186.74,744,12,744,12H326.69S407,240.35,344.43,420.07L148.15,432.32v10.83l754.78-.43V431.88ZM386.24,323.28l300.43.25c2.58,35.69,8,77.13,8,77.13l-325.32-.26A411,411,0,0,0,386.24,323.28Z" transform="translate(-148.14 -12)"/><path class="cls-2" d="M719.22,589.42,578.66,655.76a50.27,50.27,0,0,1,2.06,8.14c22.12-7.39,77.41-25,79.15-17.63s-56,16.26-79,19.46a49.89,49.89,0,0,1,.61,6c0,1.55-.31,3-.45,4.52,20.55-.45,67.71-.69,66.49,6.6s-46.79-.67-66.69-4.5a51,51,0,0,1-2.1,9.41l140.46,66.3c15.47,7.29,32-7.07,32-27.82v-109C751.19,596.49,734.69,582.13,719.22,589.42Z" transform="translate(-148.14 -12)"/><path class="cls-2" d="M479.57,677.86c-21.71,5.79-74.17,19-75.41,11.62s52.87-12,75.22-13.55c-.08-1.13-.34-2.21-.34-3.36a51.87,51.87,0,0,1,.69-7c-20.05-.54-66.1-2.57-64.39-9.83s45.4,2.89,64.6,7.7a51.3,51.3,0,0,1,2.27-8.32L343,589.42c-15.47-7.29-32,7.07-32,27.82v109c0,20.75,16.5,35.11,32,27.82l138.86-65.54A50.38,50.38,0,0,1,479.57,677.86Z" transform="translate(-148.14 -12)"/><rect class="cls-2" x="340.78" y="619.43" width="82.69" height="81.46" rx="40.32"/></svg>