<svg id="Layer_1" data-name="Layer 1" xmlns="http://www.w3.org/2000/svg" viewBox="0 0 968 699.27"><defs><style>.cls-1{fill:#d13232;}.cls-2{fill:#4d4d4d;}</style></defs><path class="cls-1" d="M371,245.2l106.8-89.38a20.2,20.2,0,0,1,2.59-1.59,20,20,0,0,1,2.26-1.48,2,2,0,0,1,.26-.08,21.87,21.87,0,0,1,3.72-1.13,23,23,0,0,1,2.26-.62,17.33,17.33,0,0,1,3.14,0V30.43c-128.93,0-235.85,12.41-363.3,37.21C53.14,82.31,8.17,167.81,27.47,252.46c.22,1,.45,2.07.67,3.11,19.3,84.8,86.37,139.26,150.5,126.89,51.61-10,81.5-17.75,133.54-23.12.27,0,.53-.12.8-.15C313.32,316.77,333.65,276.45,371,245.2Zm-232.58-37c-5.84-84.76,189.65-104.49,213.51-40.68S144.26,293,138.42,208.2Z" transform="translate(-23 -30.43)"/><path class="cls-2" d="M916.33,238.62A44.71,44.71,0,0,1,959.89,194C953.1,131.8,913.28,78.89,855.32,67.64,727.87,42.84,621,30.43,492,30.43V150.89a17.23,17.23,0,0,1,3.13,0,23,23,0,0,1,2.26.62,21.87,21.87,0,0,1,3.72,1.13,2,2,0,0,1,.26.08,19.11,19.11,0,0,1,2.26,1.48,20.2,20.2,0,0,1,2.59,1.59l106.8,89.38c37.35,31.25,57.68,71.57,58,114,.27,0,.53.12.8.15,52,5.37,81.93,13.08,133.54,23.12,57.38,11.07,117-31.45,142.76-101.24A44.64,44.64,0,0,1,916.33,238.62Zm-284.21-71.1C656,103.71,851.47,123.44,845.63,208.2S608.26,231.34,632.12,167.52Z" transform="translate(-23 -30.43)"/><path class="cls-2" d="M492,172.82l-106.8,89.37C351.81,290.14,333.88,326.3,335,363.5L492,664.91V172.82Z" transform="translate(-23 -30.43)"/><path class="cls-1" d="M492,664.91V172.82l106.81,89.37c33.41,27.95,51.34,64.11,50.25,101.31Z" transform="translate(-23 -30.43)"/><path class="cls-2" d="M961.05,283.34a44.79,44.79,0,0,1-7.28-.74V729.7h14.56V282.6A44.91,44.91,0,0,1,961.05,283.34Z" transform="translate(-23 -30.43)"/><path class="cls-1" d="M991,238.62a30,30,0,1,1-30-30A30,30,0,0,1,991,238.62Z" transform="translate(-23 -30.43)"/></svg>