<?xml version="1.0" standalone="no"?>
<!DOCTYPE svg PUBLIC "-//W3C//DTD SVG 20010904//EN"
 "http://www.w3.org/TR/2001/REC-SVG-20010904/DTD/svg10.dtd">
<svg version="1.0" xmlns="http://www.w3.org/2000/svg"
 width="679.000000pt" height="679.000000pt" viewBox="0 0 679.000000 679.000000"
 preserveAspectRatio="xMidYMid meet">
<metadata>
Created by potrace 1.11, written by Peter Selinger 2001-2013
</metadata>
<g transform="translate(0.000000,679.000000) scale(0.100000,-0.100000)"
fill="#000000" stroke="none">
<path d="M3086 6502 c-3 -6 -38 -180 -51 -262 -3 -19 -16 -93 -30 -165 -28
-155 -37 -203 -41 -230 -10 -70 -15 -104 -19 -130 -3 -16 -8 -59 -11 -95 -3
-36 -10 -96 -14 -135 -12 -110 -9 -597 6 -737 17 -177 40 -329 75 -498 35
-169 36 -176 44 -200 3 -10 8 -27 10 -37 26 -125 155 -495 232 -663 82 -181
192 -390 267 -510 85 -134 170 -259 234 -345 128 -170 375 -455 396 -455 12 0
254 122 349 177 237 135 549 359 737 528 69 62 320 314 380 380 441 494 789
1144 959 1795 28 104 55 224 67 290 2 14 7 39 11 55 4 17 7 32 8 35 1 3 4 27
9 53 4 27 9 56 11 65 1 10 10 55 19 102 8 47 18 99 21 115 20 107 34 189 32
191 -1 1 -110 5 -242 9 -132 4 -258 8 -280 10 -22 1 -87 5 -145 9 -58 4 -123
9 -145 11 -22 1 -74 6 -115 9 -96 8 -166 15 -210 21 -19 3 -56 7 -82 10 -44 5
-111 13 -163 19 -233 31 -491 75 -715 122 -41 8 -88 18 -104 21 -17 2 -102 23
-190 45 -89 22 -170 41 -180 44 -30 6 -248 65 -276 74 -14 5 -101 31 -195 59
-175 52 -468 149 -587 194 -37 14 -69 23 -72 19z m979 -1263 c128 -48 247
-189 310 -370 l14 -39 -77 39 c-146 73 -286 114 -472 137 -91 11 -307 3 -332
-13 -5 -2 -8 0 -8 5 0 17 62 85 122 135 147 123 301 159 443 106z m1597 -312
c59 -35 111 -88 162 -167 39 -60 96 -179 96 -200 0 -5 -46 13 -102 40 -190 90
-355 125 -588 125 -74 0 -150 -3 -169 -8 l-33 -7 18 28 c9 15 40 48 68 75 184
172 379 213 548 114z m-2062 -1138 c35 -37 189 -147 290 -207 432 -257 998
-295 1486 -102 74 30 98 37 79 22 -5 -4 -28 -29 -49 -57 -46 -58 -182 -194
-245 -245 -235 -190 -472 -279 -706 -267 -55 3 -111 8 -124 11 -293 68 -529
278 -700 621 -49 100 -121 279 -121 303 0 5 63 -50 90 -79z"/>
<path d="M2738 4454 c-152 -60 -534 -183 -801 -258 -162 -46 -473 -122 -542
-133 -16 -2 -46 -8 -65 -13 -19 -5 -48 -12 -65 -14 -16 -3 -41 -8 -55 -11
-165 -33 -304 -58 -385 -70 -41 -5 -76 -11 -130 -20 -53 -9 -318 -44 -380 -50
-33 -3 -69 -8 -80 -10 -11 -2 -58 -7 -105 -11 -89 -7 -120 -11 -126 -17 -2 -2
3 -26 10 -53 8 -27 26 -92 40 -144 13 -52 34 -131 46 -175 12 -44 23 -87 25
-95 10 -47 80 -282 113 -380 116 -340 293 -701 491 -1000 478 -723 1158 -1293
1941 -1628 121 -52 231 -94 234 -90 1 2 22 28 47 58 242 291 487 705 647 1090
89 215 232 675 232 747 0 13 -15 40 -34 60 -120 135 -314 420 -469 688 -6 11
-50 98 -98 193 -75 149 -88 170 -100 156 -7 -9 -31 -28 -53 -43 -176 -120
-393 -75 -604 124 l-43 41 123 0 c145 1 275 22 407 67 67 22 95 36 94 47 -1 8
-18 62 -38 120 -77 221 -153 511 -190 730 -10 58 -21 108 -24 111 -3 3 -32 -4
-63 -17z m-936 -1241 c-5 -10 -12 -33 -15 -51 -4 -18 -23 -67 -42 -109 -132
-286 -376 -369 -633 -216 -60 36 -182 137 -182 151 0 4 46 6 102 6 253 -4 509
69 726 207 54 34 55 34 44 12z m-259 -765 c165 -173 224 -302 173 -380 -38
-58 -167 -92 -230 -61 -58 27 -71 62 -70 193 0 77 6 136 18 180 10 36 19 70
20 75 5 24 18 55 23 55 3 0 33 -28 66 -62z m1337 -562 c137 -13 275 -53 403
-116 45 -23 93 -50 107 -61 14 -12 20 -18 14 -15 -28 14 -301 21 -419 11 -65
-5 -166 -16 -185 -20 -8 -1 -33 -6 -55 -9 -298 -48 -673 -200 -915 -371 -71
-50 -73 -50 -47 1 36 71 136 201 203 264 118 112 215 175 359 235 127 53 212
72 355 82 47 3 87 7 89 9 2 2 7 2 10 0 3 -2 40 -7 81 -10z"/>
</g>
</svg>
