<svg id="Layer_1" data-name="Layer 1" xmlns="http://www.w3.org/2000/svg" viewBox="0 0 1004 597.09"><defs><style>.cls-1{fill:#4d4d4d;}.cls-2{fill:#d13232;}</style></defs><path class="cls-1" d="M511,50.75C233.75,50.75,9,318.08,9,647.84H1013C1013,318.08,788.25,50.75,511,50.75Zm0,26.42c253.53,0,459.05,244.46,459.05,546H52C52,321.63,257.48,77.17,511,77.17Z" transform="translate(-9 -50.75)"/><path class="cls-2" d="M457.86,488c-8.09,3.8-17.59-3.49-17.59-13.43V446.24c-41.6,8.2-114.66,25.22-114.66,43.7C292,542.24,297.06,606,297.06,606l171.35,0V483Z" transform="translate(-9 -50.75)"/><polygon class="cls-1" points="561.95 432.56 561.95 432.56 561.95 432.77 561.95 432.56"/><path class="cls-2" d="M697.25,489.57c0-18.33-71.82-35.21-113.6-43.49v28.51a15.74,15.74,0,0,1-3.4,9.94,12.12,12.12,0,0,1-9.3,4.6,11.37,11.37,0,0,1-4.89-1.11l-11.65-5.5V606L726,606S730.9,541.85,697.25,489.57Zm-61.17,52.18,30.1,27.37H606Zm42,45H594.06V575.56h84.05Z" transform="translate(-9 -50.75)"/><path class="cls-1" d="M416,331.56c-14.2,0-27.29-11.1-30.59-26.95-3.7-17.88,6.47-35.17,22.66-38.54l1.72,8.22c-11.67,2.43-18.91,15.27-16.15,28.61s14.59,22.27,26.18,19.86L421.5,331A26.77,26.77,0,0,1,416,331.56Z" transform="translate(-9 -50.75)"/><path class="cls-1" d="M605,331.56a26.77,26.77,0,0,1-5.53-.57l1.7-8.23c11.67,2.37,23.43-6.49,26.19-19.86s-4.47-26.18-16.15-28.61l1.72-8.22c16.2,3.37,26.37,20.66,22.65,38.54C632.32,320.46,619.23,331.56,605,331.56Z" transform="translate(-9 -50.75)"/><path class="cls-1" d="M414.15,327.58c2.61,33.66,17.64,73.75,50.42,89.26h.52c-27.18-18.9-40.14-54.7-46-89.69C419.16,327.89,414.15,327.58,414.15,327.58Z" transform="translate(-9 -50.75)"/><path class="cls-1" d="M557,416.84h.09c34.45-17.86,48.56-58.65,51.56-89.42,0,0-4.76,0-5,1C597.21,363.06,583.82,398.18,557,416.84Z" transform="translate(-9 -50.75)"/><path class="cls-1" d="M403.45,272.06C412.9,270,423.05,288,423.05,288l3.88-68.83s42.58,29.76,151.93,14.32c-3.15-24.06,15.19-14.54,15.19-14.54s8.23,75.29,7.92,72.4C606.91,272,618,274,618,274s48.5-131.14-110.16-136.6c-56.91,0-63.7,20.47-60.65,35.36C388.71,169.91,395.75,254.15,403.45,272.06Z" transform="translate(-9 -50.75)"/><path class="cls-1" d="M568.45,433.5l-45,21.25A12,12,0,0,0,512,446.12h-.61A12,12,0,0,0,500,454.54l-44.56-21c-4.64-2.19-9.6,2.12-9.6,8.36V474.6c0,6.23,5,10.54,9.6,8.35l44.52-21a12,12,0,0,0,11.41,8.64H512a11.94,11.94,0,0,0,11.45-8.86l45,21.23c4.64,2.19,9.6-2.12,9.6-8.35V441.86C578.05,435.62,573.09,431.31,568.45,433.5Z" transform="translate(-9 -50.75)"/><path class="cls-1" d="M512,476.18a18.67,18.67,0,0,1-7.07-1.44V606H518.4V474.85A17.14,17.14,0,0,1,512,476.18Zm-.17,96.93a4,4,0,1,1,4-4A4,4,0,0,1,511.84,573.11Zm0-70.15a4,4,0,1,1,4-4A4,4,0,0,1,511.84,503Z" transform="translate(-9 -50.75)"/></svg>