<svg id="Layer_1" data-name="Layer 1" xmlns="http://www.w3.org/2000/svg" viewBox="0 0 770.06 716.9"><defs><style>.cls-1{fill:#4d4d4d;}.cls-2{fill:#d13232;}</style></defs><path class="cls-1" d="M149.39,482.94v262H894.55v-262Zm647.22,16.28a9.32,9.32,0,1,1-9.31,9.32A9.32,9.32,0,0,1,796.61,499.22Zm-78.47,0a9.32,9.32,0,1,1-9.31,9.32A9.32,9.32,0,0,1,718.14,499.22Zm-78.46,0a9.32,9.32,0,1,1-9.32,9.32A9.31,9.31,0,0,1,639.68,499.22Zm-78.47,0a9.32,9.32,0,1,1-9.32,9.32A9.31,9.31,0,0,1,561.21,499.22Zm-78.47,0a9.32,9.32,0,1,1-9.32,9.32A9.31,9.31,0,0,1,482.74,499.22Zm-78.47,0a9.32,9.32,0,1,1-9.32,9.32A9.31,9.31,0,0,1,404.27,499.22Zm-78.47,0a9.32,9.32,0,1,1-9.32,9.32A9.31,9.31,0,0,1,325.8,499.22Zm-78.47,0a9.32,9.32,0,1,1-9.32,9.32A9.31,9.31,0,0,1,247.33,499.22Zm-87.78,9.32a9.31,9.31,0,1,1,9.31,9.31A9.31,9.31,0,0,1,159.55,508.54ZM875.08,728.09H168.86V613.92H875.08Zm0-210.24a9.32,9.32,0,1,1,9.32-9.31A9.31,9.31,0,0,1,875.08,517.85Z" transform="translate(-136.94 -28)"/><path class="cls-1" d="M522,191.89A331.88,331.88,0,0,1,478.38,189a49.56,49.56,0,1,0,87.18,0A331.76,331.76,0,0,1,522,191.89Z" transform="translate(-136.94 -28)"/><path class="cls-2" d="M194.14,299l-.86,3.79-21.49-1.9c18.9,25.38,63.25,93,67.15,173.89H195.19c0-87.24-27.43-152-38.88-175.26l-6.92-.61v184H275.06C258.62,376.78,213.68,319.56,194.14,299Z" transform="translate(-136.94 -28)"/><path class="cls-2" d="M887.63,299.55c-11.45,23.27-38.87,88-38.87,175.26H805c3.9-80.89,48.24-148.5,67.14-173.89l-21.49,1.9L849.8,299c-19.54,20.53-64.48,77.75-80.92,183.91H894.55v-184Z" transform="translate(-136.94 -28)"/><polygon class="cls-1" points="54.55 260.52 12.45 255.38 12.45 266 52.49 269.54 54.55 260.52"/><polygon class="cls-1" points="715.51 260.52 757.61 255.38 757.61 266 717.57 269.54 715.51 260.52"/><path class="cls-2" d="M306.47,40.44C306.47,118.65,403,182,522,182s215.5-63.39,215.5-141.6ZM522,149.27c-90.5,0-161.39-48.1-161.39-100.92h14c0,36.47,77.15,62,147.36,62s148-25.55,148-62h13.37C683.36,101.17,612.47,149.27,522,149.27Z" transform="translate(-136.94 -28)"/><path class="cls-1" d="M459.05,468.17c0-35.19,28.17-63.72,62.92-63.72s62.92,28.53,62.92,63.72Z" transform="translate(-136.94 -28)"/><path class="cls-1" d="M149.39,28a12.45,12.45,0,1,0,12.44,12.44A12.44,12.44,0,0,0,149.39,28Zm0,18.67a6.23,6.23,0,1,1,6.22-6.23A6.23,6.23,0,0,1,149.39,46.67Z" transform="translate(-136.94 -28)"/><path class="cls-1" d="M894.55,28A12.45,12.45,0,1,0,907,40.44,12.44,12.44,0,0,0,894.55,28Zm0,18.67a6.23,6.23,0,1,1,6.23-6.23A6.23,6.23,0,0,1,894.55,46.67Z" transform="translate(-136.94 -28)"/><path class="cls-2" d="M894.55,57.81a17.38,17.38,0,0,1-17.36-17.36H747.31c0,2.89-.15,5.76-.39,8.61h27.91c22,101.25,95.6,126.65,112.41,131.17v54.62S778.88,214,738.07,83.3c-8.81,20-23.59,38.34-43,54,17.35,58.18,57.92,125.49,152,149.78l-.63-2.77,48.11-5.88Z" transform="translate(-136.94 -28)"/><path class="cls-2" d="M306,83.6C265.4,214.09,157.31,234.85,157.31,234.85V180.79c20.61-6.14,89.27-33.66,110.41-131H297.1c-.28-3.09-.47-6.19-.47-9.32H166.75a17.38,17.38,0,0,1-17.36,17.36h0V278.42l48.11,5.88-.63,2.77c94.09-24.29,134.66-91.6,152-149.78C329.56,121.72,314.82,103.51,306,83.6Z" transform="translate(-136.94 -28)"/></svg>